<svg width="40" height="40" viewBox="0 0 40 40" fill="none" xmlns="http://www.w3.org/2000/svg">
<rect width="40" height="40" fill="#19364D"/>
<rect width="32" height="32" transform="translate(4.80493 3.80469)" fill="#19364D"/>
<path d="M22.6849 19.8048L28.4182 14.0848C28.6693 13.8337 28.8103 13.4932 28.8103 13.1381C28.8103 12.783 28.6693 12.4425 28.4182 12.1914C28.1671 11.9404 27.8266 11.7993 27.4715 11.7993C27.1164 11.7993 26.7759 11.9404 26.5249 12.1914L20.8049 17.9248L15.0849 12.1914C14.8338 11.9404 14.4933 11.7993 14.1382 11.7993C13.7831 11.7993 13.4426 11.9404 13.1915 12.1914C12.9404 12.4425 12.7994 12.783 12.7994 13.1381C12.7994 13.4932 12.9404 13.8337 13.1915 14.0848L18.9249 19.8048L13.1915 25.5248C13.0665 25.6487 12.9674 25.7962 12.8997 25.9587C12.832 26.1211 12.7971 26.2954 12.7971 26.4714C12.7971 26.6475 12.832 26.8217 12.8997 26.9842C12.9674 27.1467 13.0665 27.2942 13.1915 27.4181C13.3155 27.5431 13.4629 27.6423 13.6254 27.71C13.7879 27.7777 13.9622 27.8125 14.1382 27.8125C14.3142 27.8125 14.4885 27.7777 14.651 27.71C14.8134 27.6423 14.9609 27.5431 15.0849 27.4181L20.8049 21.6848L26.5249 27.4181C26.6488 27.5431 26.7963 27.6423 26.9587 27.71C27.1212 27.7777 27.2955 27.8125 27.4715 27.8125C27.6475 27.8125 27.8218 27.7777 27.9843 27.71C28.1468 27.6423 28.2942 27.5431 28.4182 27.4181C28.5432 27.2942 28.6423 27.1467 28.71 26.9842C28.7777 26.8217 28.8126 26.6475 28.8126 26.4714C28.8126 26.2954 28.7777 26.1211 28.71 25.9587C28.6423 25.7962 28.5432 25.6487 28.4182 25.5248L22.6849 19.8048Z" fill="#FCFCFC"/>
</svg>
